<?xml version="1.0" encoding="iso-8859-1"?>
<!-- Uploaded to: SVG Repo, www.svgrepo.com, Generator: SVG Repo Mixer Tools -->
<svg height="800px" width="800px" version="1.1" id="Layer_1" xmlns="http://www.w3.org/2000/svg" xmlns:xlink="http://www.w3.org/1999/xlink" 
	 viewBox="0 0 503.467 503.467" xml:space="preserve">
<g transform="translate(1 1)">
	<path style="fill:#80D6FA;" d="M156.867,37.4c0-18.773-15.36-34.133-34.133-34.133H37.4c-18.773,0-34.133,15.36-34.133,34.133
		v341.333l153.6-34.133V37.4z"/>
	<path style="fill:#ECF4F7;" d="M214.04,344.6l122.88-213.333c9.387-16.213,3.413-37.547-12.8-46.933l-74.24-42.667
		c-16.213-9.387-37.547-4.267-46.933,12.8L35.693,344.6H214.04L214.04,344.6z"/>
	<path style="fill:#F2EDDA;" d="M362.52,344.6l87.04-50.347c16.213-9.387,22.187-30.72,12.8-46.933l-42.667-74.24
		c-9.387-16.213-29.867-22.187-46.933-12.8L55.32,343.747h307.2V344.6z"/>
	<path style="fill:#ECF4F7;" d="M156.867,344.6v153.6H37.4c-18.773,0-34.133-15.36-34.133-34.133v-85.333
		c0-18.773,15.36-34.133,34.133-34.133H156.867z"/>
	<path style="fill:#FFE079;" d="M498.2,378.733v85.333c0,18.773-15.36,34.133-34.133,34.133h-307.2V344.6h307.2
		C482.84,344.6,498.2,359.96,498.2,378.733"/>
	<circle style="fill:#AAB1BA;" cx="80.067" cy="421.4" r="17.067"/>
</g>
<path style="fill:#51565F;" d="M465.067,503.467H192c-2.56,0-4.267-1.707-4.267-4.267c0-2.56,1.707-4.267,4.267-4.267h273.067
	c16.213,0,29.867-13.653,29.867-29.867v-85.333c0-16.213-13.653-29.867-29.867-29.867H38.4c-16.213,0-29.867,13.653-29.867,29.867
	v85.333c0,16.213,13.653,29.867,29.867,29.867h115.2v-115.2c0-2.56,1.707-4.267,4.267-4.267c2.56,0,4.267,1.707,4.267,4.267V499.2
	c0,2.56-1.707,4.267-4.267,4.267H38.4c-21.333,0-38.4-17.067-38.4-38.4v-85.333c0-21.333,17.067-38.4,38.4-38.4h426.667
	c21.333,0,38.4,17.067,38.4,38.4v85.333C503.467,486.4,486.4,503.467,465.067,503.467z M413.867,469.333
	c-2.56,0-4.267-1.707-4.267-4.267v-85.333c0-2.56,1.707-4.267,4.267-4.267s4.267,1.707,4.267,4.267v85.333
	C418.133,467.627,416.427,469.333,413.867,469.333z M328.533,469.333c-2.56,0-4.267-1.707-4.267-4.267v-85.333
	c0-2.56,1.707-4.267,4.267-4.267s4.267,1.707,4.267,4.267v85.333C332.8,467.627,331.093,469.333,328.533,469.333z M243.2,469.333
	c-2.56,0-4.267-1.707-4.267-4.267v-85.333c0-2.56,1.707-4.267,4.267-4.267s4.267,1.707,4.267,4.267v85.333
	C247.467,467.627,245.76,469.333,243.2,469.333z M81.067,443.733c-11.947,0-21.333-9.387-21.333-21.333s9.387-21.333,21.333-21.333
	S102.4,410.453,102.4,422.4S93.013,443.733,81.067,443.733z M81.067,409.6c-6.827,0-12.8,5.973-12.8,12.8s5.973,12.8,12.8,12.8
	c6.827,0,12.8-5.973,12.8-12.8S87.893,409.6,81.067,409.6z M4.267,332.8c-2.56,0-4.267-1.707-4.267-4.267V38.4
	c0-10.24,4.267-19.627,11.093-27.307C17.92,4.267,28.16,0,38.4,0l0,0h85.333l0,0c10.24,0,19.627,4.267,27.307,11.093
	c7.68,7.68,11.093,17.067,11.093,27.307V64c0,2.56-1.707,4.267-4.267,4.267S153.6,66.56,153.6,64V38.4
	c0-7.68-3.413-15.36-8.533-21.333c-5.12-5.973-12.8-8.533-21.333-8.533l0,0H38.4l0,0c-7.68,0-15.36,3.413-21.333,8.533
	c-5.973,5.973-8.533,12.8-8.533,21.333v290.133C8.533,331.093,6.827,332.8,4.267,332.8z M423.253,318.293
	c-1.707,0-2.56-0.853-3.413-2.56c-0.853-1.707-0.853-4.267,1.707-5.973l29.013-17.067c6.827-4.267,11.947-10.24,13.653-17.92
	c1.707-7.68,0.853-15.36-2.56-23.04l-42.667-74.24c-4.267-6.827-10.24-11.947-17.92-13.653c-7.68-1.707-15.36-0.853-23.04,2.56
	l-256.853,148.48c-1.707,0.853-4.267,0.853-5.973-1.707c-0.853-1.707-0.853-4.267,1.707-5.973l256.853-148.48
	c8.533-5.12,19.627-6.827,29.013-3.413c10.24,2.56,17.92,9.387,23.04,17.92l42.667,74.24c5.12,8.533,6.827,19.627,4.267,29.013
	c-2.56,10.24-9.387,17.92-17.92,23.04l-29.013,17.067C424.107,317.44,424.107,318.293,423.253,318.293z M56.32,316.587
	c-0.853,0-1.707,0-1.707-0.853c-1.707-0.853-2.56-3.413-1.707-5.973L203.093,49.493c5.12-8.533,13.653-15.36,23.04-17.92
	c10.24-2.56,20.48-1.707,29.013,3.413l74.24,42.667c8.533,5.12,15.36,13.653,17.92,23.04c2.56,10.24,1.707,20.48-3.413,29.013
	l-10.24,22.187c-0.853,2.56-3.413,3.413-5.973,1.707c-2.56-0.853-3.413-3.413-1.707-5.973l11.093-23.04
	c4.267-6.827,5.12-15.36,3.413-23.04c-1.707-7.68-6.827-14.507-13.653-17.92l-74.24-42.667c-6.827-4.267-15.36-5.12-23.04-2.56
	c-7.68,1.707-14.507,6.827-17.92,13.653L61.44,312.32C58.88,315.733,58.027,316.587,56.32,316.587z M302.933,316.587
	c-1.707,0-2.56-0.853-3.413-2.56l-29.013-50.347c0-0.853-0.853-1.707-0.853-2.56c0-1.707,0.853-2.56,2.56-3.413
	c1.707-0.853,4.267-0.853,5.973,1.707L307.2,309.76c0,0.853,0.853,1.707,0.853,2.56c0,1.707-0.853,2.56-2.56,3.413
	C304.64,315.733,303.787,316.587,302.933,316.587z M204.8,316.587c-1.707,0-2.56-0.853-3.413-2.56l-5.12-9.387
	c0-0.853-0.853-1.707-0.853-2.56c0-1.707,0.853-2.56,2.56-3.413c1.707-0.853,4.267-0.853,5.973,1.707l5.12,9.387
	c0,0.853,0.853,1.707,0.853,2.56c0,1.707-0.853,2.56-2.56,3.413C205.653,315.733,205.653,316.587,204.8,316.587z M390.827,296.96
	c-1.707,0-2.56-0.853-3.413-2.56l-42.667-74.24c0-0.853-0.853-1.707-0.853-2.56c0-1.707,0.853-2.56,2.56-3.413
	c1.707-0.853,4.267-0.853,5.973,1.707l42.667,74.24c0,0.853,0.853,1.707,0.853,2.56c0,1.707-0.853,2.56-2.56,3.413
	C391.68,296.96,391.68,296.96,390.827,296.96z M134.827,270.507c-0.853,0-1.707,0-1.707-0.853l-9.387-5.12
	c-1.707-0.853-2.56-2.56-2.56-3.413c0-0.853,0-1.707,0.853-1.707c0.853-1.707,3.413-2.56,5.973-1.707l9.387,5.12
	c1.707,0.853,2.56,2.56,2.56,3.413c0,0.853,0,1.707-0.853,1.707C137.387,269.653,135.68,270.507,134.827,270.507z M46.933,264.533
	H38.4c-2.56,0-4.267-1.707-4.267-4.267c0-2.56,1.707-4.267,4.267-4.267h8.533c2.56,0,4.267,1.707,4.267,4.267
	C51.2,262.827,49.493,264.533,46.933,264.533z M218.453,220.16c-0.853,0-1.707,0-1.707-0.853L166.4,190.293
	c-1.707-0.853-2.56-2.56-2.56-3.413c0-0.853,0-1.707,0.853-2.56c0.853-1.707,3.413-2.56,5.973-1.707l50.347,29.013
	c1.707,0.853,2.56,2.56,2.56,3.413c0,0.853,0,1.707-0.853,2.56C221.013,219.307,219.307,220.16,218.453,220.16z M98.133,179.2H38.4
	c-2.56,0-4.267-1.707-4.267-4.267c0-2.56,1.707-4.267,4.267-4.267h59.733c2.56,0,4.267,1.707,4.267,4.267
	C102.4,177.493,100.693,179.2,98.133,179.2z M284.16,159.573c-0.853,0-1.707,0-2.56-0.853l-74.24-42.667
	c-1.707-0.853-2.56-2.56-2.56-3.413c0-0.853,0-1.707,0.853-2.56c0.853-1.707,3.413-2.56,5.973-1.707l74.24,42.667
	c1.707,0.853,2.56,2.56,2.56,3.413c0,0.853,0,1.707-0.853,2.56C287.573,158.72,285.867,159.573,284.16,159.573z M123.733,93.867
	H38.4c-2.56,0-4.267-1.707-4.267-4.267c0-2.56,1.707-4.267,4.267-4.267h85.333c2.56,0,4.267,1.707,4.267,4.267
	C128,92.16,126.293,93.867,123.733,93.867z"/>
</svg>